<?xml version="1.0" encoding="UTF-8" standalone="no"?>
<!-- Created with Inkscape (http://www.inkscape.org/) -->

<svg
   width="400mm"
   height="250mm"
   viewBox="0 0 400 250"
   version="1.1"
   id="svg1"
   xmlns="http://www.w3.org/2000/svg"
   xmlns:svg="http://www.w3.org/2000/svg">
  <defs
     id="defs1" />
  <g
     id="layer1">
    <path
       style="fill:#bb4d4d;stroke-width:4.528"
       d="m 97.734013,55.703324 8.608697,10.127877"
       id="path1" />
    <g
       id="text1"
       style="font-size:110.197px;line-height:0.9;font-family:'Bungee Inline';-inkscape-font-specification:'Bungee Inline, Normal';text-align:center;letter-spacing:0px;word-spacing:0px;text-anchor:middle;fill:#bb4d4d;stroke-width:25.257"
       transform="scale(0.78979192,1.2661563)"
       aria-label="MPG &#10;TRACKER">
      <path
         style="font-family:'Fugaz One';-inkscape-font-specification:'Fugaz One, Normal';text-align:start;text-anchor:start"
         d="M 38.196184,7.5333365 49.987263,45.551301 75.332573,7.5333365 H 96.159805 L 82.164787,86.875175 H 62.21913 L 70.153314,42.135194 53.182976,68.802868 H 38.747169 L 31.253773,42.135194 23.319589,86.875175 H 3.4841296 L 17.479148,7.5333365 Z M 135.05944,62.742033 H 121.946 l -4.29768,24.133142 H 97.812857 L 111.80788,7.5333365 h 33.61008 q 12.45226,0 17.74172,5.7302435 3.85689,4.40788 3.85689,11.240094 0,2.314137 -0.44079,4.848668 l -2.20394,12.452261 q -1.65295,9.146351 -9.69733,15.096989 -8.04438,5.840441 -19.61507,5.840441 z m 3.41611,-38.017965 h -9.91773 l -3.6365,20.827233 h 9.80753 q 9.03616,0 10.46872,-8.044381 l 0.77138,-4.518077 q 0.22039,-0.991773 0.22039,-2.644728 0,-1.652955 -1.65296,-3.636501 -1.65295,-1.983546 -6.06083,-1.983546 z m 57.30249,63.693865 q -15.64798,0 -21.59862,-7.273001 -4.07728,-5.069062 -4.07728,-13.884822 0,-4.077289 0.88157,-8.925957 l 3.8569,-22.0394 q 5.17926,-29.5327955 36.14461,-29.5327955 12.78285,0 19.39467,5.5098495 6.61182,5.399653 6.61182,14.876595 0,3.856895 -1.10197,7.823987 -0.99177,3.967092 -1.98354,5.950638 l -1.10197,1.983546 h -19.50487 q 2.86512,-3.967092 2.86512,-9.146351 0,-9.91773 -8.26477,-9.91773 -11.1299,0 -13.33384,12.893049 l -3.7467,21.157824 q -0.55098,2.975319 -0.55098,5.840441 0,7.603593 8.92595,7.603593 9.03616,0 11.57069,-9.036154 h -9.03616 l 2.20394,-12.231867 h 29.20221 l -1.76315,9.476942 -0.55099,3.195713 q -4.62827,25.6759 -35.04264,25.6759 z"
         id="path7" />
      <path
         style="font-family:'Fugaz One';-inkscape-font-specification:'Fugaz One, Normal';text-align:start;text-anchor:start"
         d="M 82.05459,127.44516 H 54.946128 l -10.909503,62.1511 H 24.090968 l 10.909503,-62.1511 H 7.7818125 l 3.0855155,-17.19074 h 74.272778 z m 44.0787,-17.19074 q 12.56246,0 17.85192,5.50985 3.96709,4.18749 3.96709,10.57892 0,2.20394 -0.44079,4.62827 l -1.54276,8.59537 q -1.32236,7.1628 -4.62827,11.57068 -3.19572,4.40788 -7.16281,6.28123 l 10.02793,32.17752 h -22.25979 l -9.25655,-29.64299 h -6.83222 l -4.51807,29.64299 H 80.181143 l 13.995019,-79.34184 z m -6.94241,17.19074 h -8.26477 l -2.86513,19.17427 h 7.71379 q 5.84044,0 8.37498,-2.75492 2.53453,-2.86512 2.53453,-7.4934 0,-8.92595 -7.4934,-8.92595 z m 72.50965,62.1511 0.66118,-17.30093 h -18.4029 l -5.39965,17.30093 h -21.04763 l 28.32063,-79.34184 h 36.36501 l 0.44079,79.34184 z m -4.51808,-60.05736 -8.70556,27.99004 h 14.43581 l 1.21216,-27.99004 z m 63.80414,61.60012 q -15.75817,0 -21.81901,-6.83221 -4.18748,-4.84867 -4.18748,-13.55423 0,-3.7467 0.77138,-8.04438 l 4.51807,-25.34531 q 4.95887,-27.87984 35.81403,-27.87984 12.78285,0 19.39467,5.50985 6.61182,5.39965 6.61182,14.87659 0,4.40788 -1.32236,8.81576 -1.21217,4.29768 -2.42434,6.39143 l -1.21216,2.20394 h -19.50487 q 3.6365,-4.18749 3.6365,-11.90128 0,-4.07729 -2.09375,-6.39143 -2.09374,-2.42433 -6.17103,-2.42433 -11.12989,0 -13.22364,12.34206 l -3.85689,22.2598 q -0.55099,2.86512 -0.55099,5.62004 0,7.27301 8.70557,7.27301 10.46871,0 12.56245,-11.79108 h 19.83546 l -0.55098,3.19571 q -4.40788,25.6759 -34.93245,25.6759 z m 120.33506,-80.8846 -25.23511,40.00151 11.24009,39.34033 H 336.3892 l -8.26478,-29.092 h -8.70556 l -5.17926,29.092 h -19.83546 l 13.99502,-79.34184 h 19.83546 l -5.84044,33.0591 h 7.05261 l 20.93743,-33.0591 z m 50.69063,79.34184 h -55.31889 l 13.99502,-79.34184 h 55.31889 l -3.08552,17.19074 h -35.48343 l -2.53453,14.87659 h 29.3124 l -3.08551,17.19073 H 391.8183 l -2.20394,12.89305 h 35.48344 z m 58.62486,-79.34184 q 12.56246,0 17.85192,5.50985 3.96709,4.18749 3.96709,10.57892 0,2.20394 -0.44079,4.62827 l -1.54276,8.59537 q -1.32236,7.1628 -4.62827,11.57068 -3.19571,4.40788 -7.1628,6.28123 l 10.02792,32.17752 h -22.25979 l -9.25655,-29.64299 h -6.83221 l -4.51808,29.64299 H 434.685 l 13.99502,-79.34184 z m -6.94241,17.19074 h -8.26477 l -2.86512,19.17427 h 7.71379 q 5.84044,0 8.37497,-2.75492 2.53453,-2.86512 2.53453,-7.4934 0,-8.92595 -7.4934,-8.92595 z"
         id="path8" />
    </g>
    <path
       id="path2"
       style="fill:#b39644;fill-opacity:0.700155;stroke-width:5.44847"
       d="m 344.84832,58.480239 c 5.56766,20.903627 3.29818,43.591241 -5.06902,50.674201 -8.36721,7.08296 -0.99271,-21.199832 -6.56037,-42.103467 -5.56768,-20.903634 -21.96916,-26.512335 -13.60195,-33.59528 8.36722,-7.08295 19.66368,4.120919 25.23134,25.024546 z" />
    <path
       id="path2-1"
       style="fill:#b39644;fill-opacity:0.700155;stroke-width:5.49768"
       d="m 342.15677,61.197339 c 5.56766,21.282932 3.29818,44.382221 -5.06902,51.593701 -8.36721,7.21149 -0.99271,-21.584507 -6.56037,-42.867446 -5.56768,-21.282938 -21.96916,-26.993411 -13.60195,-34.20488 8.36722,-7.211472 19.66368,4.195696 25.23134,25.478625 z" />
    <g
       id="g7"
       transform="matrix(-1.217019,-0.47562248,-0.44295866,1.306762,606.47361,106.84511)">
      <path
         id="rect2"
         style="fill:#48812e;stroke-width:4.528"
         d="m 233.338,42.741831 c 0.0759,-3.500262 8.15267,-2.416595 9.98312,-5.401068 0.80937,-1.319647 2.55507,-2.948628 3.98396,-2.363425 3.34525,1.370048 9.45948,0.124791 13.99415,-0.337809 7.90301,-0.806219 10.06084,-1.519134 12.54911,-3.565611 3.1471,-2.588335 13.44112,-5.041499 15.72065,-3.54165 0.29991,0.197327 0.47659,0.445732 0.47139,0.777338 -0.37356,23.821533 5.00046,64.827162 -2.27878,71.065075 -3.98539,3.415269 -14.35564,2.420369 -24.8229,2.138149 -12.1983,-0.32891 -23.81388,0.74682 -27.82832,-2.517944 -4.6765,-3.803186 -2.13199,-39.672551 -1.77238,-56.253055 z" />
      <path
         id="rect3"
         style="fill:#48812e;stroke-width:4.90841"
         d="m 243.82865,26.965471 c 1.90114,-1.901135 5.13774,-2.293265 8.32391,-2.165319 13.04093,0.523685 35.73235,2.291917 35.73235,2.291917 0.1792,1.680381 -0.25439,3.748266 -3.35296,2.908409 -2.16693,-0.587338 -5.8631,-0.287334 -9.95261,-0.575592 -11.50378,-0.810868 -26.99523,-1.025614 -27.07939,1.844931 l -0.161,5.491275 -3.51035,0.458854 c 0,0 -2.596,-7.658441 5e-5,-10.254475 z" />
      <path
         id="path3"
         style="fill:#48812e;stroke-width:4.9178"
         d="m 241.54051,34.966375 c 2.35053,3.451412 3.92041,6.413594 0.63485,8.021718 -3.28556,1.608124 -5.30264,-0.69663 -7.65316,-4.148044 -1.78303,-2.618131 -3.66936,-5.469719 -2.41399,-6.60746 0.49559,-0.449153 0.92029,-0.638768 1.71354,-1.027024 0.65843,-0.322271 1.17577,-0.659137 1.70035,-0.87876 1.69586,-0.710018 4.13893,1.879828 6.01841,4.63957 z" />
      <path
         id="path4"
         style="fill:#4b7837;stroke-width:4.528"
         d="m 238.70143,32.428125 c 0,1.322512 -1.90737,2.387793 -3.33456,3.289809 -0.68724,0.434354 -2.2683,0.515733 -2.57163,0.124702 -0.59672,-0.769232 -1.0896,-1.680622 -1.0896,-2.456026 0,-0.393897 0.0759,-0.738822 0.31794,-1.029916 0.57055,-0.686258 1.87848,-1.208763 3.11383,-1.823627 0.33384,-0.16616 0.66075,-0.320003 0.93814,-0.307386 1.48053,0.06734 2.62588,1.088616 2.62588,2.202444 z" />
      <path
         id="rect5"
         style="fill:#4b7837;stroke-width:4.528"
         d="m 242.05626,46.398338 c 0,0 6.53553,4.573046 10.11098,10.2234 1.35721,2.144821 6.91359,-0.288858 9.06869,-0.222121 2.56812,0.07953 7.95788,2.675543 10.07225,-0.0031 3.32638,-4.214044 12.39897,-9.998223 12.39897,-9.998223 0,0 -13.54681,12.350354 -13.60933,20.57225 -0.0149,1.96131 -1.78354,7.493981 0.2639,8.919756 6.69484,4.662092 13.34543,12.348788 13.34543,12.348788 -15.0835,-14.158505 -29.09795,-15.702175 -41.65089,0 0,0 3.74059,-6.849508 9.66294,-11.941829 2.58745,-2.224808 1.19453,-7.076676 1.16123,-9.643211 -0.0993,-7.654842 -10.82417,-20.255754 -10.82417,-20.255754 z" />
      <path
         id="rect4"
         style="fill:#45762f;fill-opacity:1;stroke-width:2.05204"
         d="m 254.79394,59.686759 c 1.35297,-3.758345 10.95782,-3.823312 12.99119,0 2.01343,3.785807 1.76023,10.31746 0,13.913369 -1.9039,3.889407 -11.84895,4.177033 -12.99119,0 -1.00064,-3.659208 -1.57087,-9.54972 0,-13.913369 z" />
      <path
         id="rect6"
         style="fill:#45762f;stroke-width:4.528"
         d="m 254.08312,45.702046 c 1.67101,-1.671014 4.50686,-0.291048 7.21611,-0.291049 2.70925,-1e-6 5.2919,-1.379966 6.96292,0.291049 0.37299,0.372994 0.37299,1.209487 0,1.582481 -1.67102,1.671015 -4.31697,0.480947 -7.02622,0.480947 -2.70925,-10e-7 -5.4818,1.190067 -7.15281,-0.480947 -0.37299,-0.372994 -0.37299,-1.209487 0,-1.582481 z" />
      <path
         d="m 256.11031,47.377457 q -0.51012,0 -0.51012,-0.370417 0,-0.05715 0.0127,-0.122767 l 0.0275,-0.156633 h 0.381 l -0.0127,0.06985 q -0.008,0.05292 -0.008,0.10795 0,0.05503 0.0275,0.09102 0.0423,0.05292 0.1397,0.05292 0.0974,0 0.15663,-0.05292 0.0614,-0.05292 0.0868,-0.194734 l 0.17357,-0.980018 h 0.37888 l -0.1778,1.009652 q -0.0487,0.281517 -0.21167,0.414867 -0.16298,0.131233 -0.46355,0.131233 z m 1.93252,-0.02963 h -1.06257 l 0.26882,-1.524002 h 1.06257 l -0.0593,0.3302 h -0.68157 l -0.0487,0.285751 h 0.56303 l -0.0593,0.3302 h -0.56304 l -0.0423,0.247651 h 0.68157 z m 1.12607,-1.524002 q 0.2413,0 0.3429,0.105833 0.0762,0.08043 0.0762,0.203201 0,0.04233 -0.008,0.0889 l -0.0296,0.1651 q -0.0254,0.137584 -0.0889,0.22225 -0.0614,0.08467 -0.13758,0.12065 l 0.19261,0.618068 h -0.42756 l -0.1778,-0.569384 h -0.13124 l -0.0868,0.569384 h -0.4064 l 0.26882,-1.524002 z m -0.13335,0.3302 h -0.15875 l -0.055,0.368301 h 0.14816 q 0.11219,0 0.16087,-0.05292 0.0487,-0.05503 0.0487,-0.143933 0,-0.171451 -0.14393,-0.171451 z m 1.52189,-0.3302 q 0.2413,0 0.3429,0.105833 0.0762,0.08043 0.0762,0.203201 0,0.04233 -0.008,0.0889 l -0.0296,0.1651 q -0.0254,0.137584 -0.0889,0.22225 -0.0614,0.08467 -0.13759,0.12065 l 0.19262,0.618068 H 260.477 l -0.1778,-0.569384 h -0.13123 l -0.0868,0.569384 h -0.40641 l 0.26882,-1.524002 z m -0.13335,0.3302 h -0.15875 l -0.055,0.368301 h 0.14817 q 0.11218,0 0.16087,-0.05292 0.0487,-0.05503 0.0487,-0.143933 0,-0.171451 -0.14393,-0.171451 z m 1.29963,0.205317 0.35772,-0.535517 h 0.381 l -0.65193,0.937685 -0.10372,0.586317 h -0.38312 l 0.10372,-0.586317 -0.32173,-0.937685 h 0.40428 l 0.1651,0.535517 z m 1.67005,1.018118 q -0.30268,0 -0.4191,-0.131233 -0.0804,-0.09313 -0.0804,-0.26035 0,-0.07197 0.0148,-0.154517 l 0.0868,-0.486834 q 0.0953,-0.535518 0.68792,-0.535518 0.24553,0 0.37253,0.105834 0.127,0.103716 0.127,0.28575 0,0.08467 -0.0254,0.169334 -0.0233,0.08255 -0.0466,0.122766 l -0.0233,0.04233 h -0.37465 q 0.0698,-0.08043 0.0698,-0.2286 0,-0.07832 -0.0402,-0.122767 -0.0402,-0.04657 -0.11853,-0.04657 -0.21378,0 -0.254,0.237067 l -0.0741,0.427567 q -0.0106,0.05503 -0.0106,0.10795 0,0.139701 0.16722,0.139701 0.20108,0 0.2413,-0.226484 h 0.381 l -0.0106,0.06138 q -0.0847,0.493184 -0.67099,0.493184 z m 1.57057,-0.02963 0.0127,-0.332317 h -0.35348 l -0.10372,0.332317 h -0.40428 l 0.54398,-1.524002 h 0.6985 l 0.008,1.524002 z m -0.0868,-1.153585 -0.16722,0.537634 h 0.27728 l 0.0233,-0.537634 z m 2.1336,-0.370417 -0.2667,1.524002 h -0.38311 l -0.2667,-0.833968 -0.14394,0.833968 h -0.38312 l 0.26882,-1.524002 h 0.3937 l 0.26247,0.778934 0.13758,-0.778934 z"
         id="text6"
         style="font-size:2.11667px;line-height:0.9;font-family:'Fugaz One';-inkscape-font-specification:'Fugaz One, Normal';letter-spacing:0px;word-spacing:0px;fill:#548f38;stroke-width:4.528"
         aria-label="JERRY CAN" />
      <path
         d="m 259.91915,65.69149 -0.2667,1.524002 h -0.38312 l -0.2667,-0.833968 -0.14393,0.833968 h -0.38312 l 0.26882,-1.524002 h 0.3937 l 0.26247,0.778934 0.13758,-0.778934 z m 0.78528,1.524002 0.0127,-0.332317 h -0.35348 l -0.10372,0.332317 h -0.40428 l 0.54398,-1.524002 h 0.69851 l 0.008,1.524002 z m -0.0868,-1.153585 -0.16722,0.537634 h 0.27729 l 0.0233,-0.537634 z m 1.0795,0.719668 q 0,0.14605 0.20956,0.14605 0.21166,0 0.21166,-0.131233 0,-0.06985 -0.072,-0.114301 -0.072,-0.04445 -0.17569,-0.07408 -0.1016,-0.02963 -0.20532,-0.06773 -0.1016,-0.04022 -0.17356,-0.122767 -0.072,-0.08467 -0.072,-0.209551 0,-0.531284 0.68369,-0.531284 0.24976,0 0.37676,0.09525 0.12912,0.09313 0.12912,0.260351 0,0.06138 -0.0169,0.118533 -0.0148,0.05503 -0.0317,0.07832 l -0.0169,0.0254 h -0.37465 q 0.0466,-0.04868 0.0466,-0.122767 0,-0.137583 -0.17992,-0.137583 -0.22648,0 -0.22648,0.143933 0,0.07197 0.072,0.1143 0.072,0.04233 0.17356,0.06773 0.10372,0.02328 0.20744,0.05927 0.10371,0.03598 0.17568,0.12065 0.072,0.08255 0.072,0.2159 0,0.268817 -0.16087,0.400051 -0.16087,0.129117 -0.4953,0.129117 -0.33444,0 -0.4572,-0.118534 -0.091,-0.0889 -0.091,-0.245534 0,-0.05927 0.0127,-0.129116 l 0.006,-0.03387 h 0.381 l -0.004,0.0254 q -0.004,0.02117 -0.004,0.0381 z m 2.41089,-1.090085 -0.2667,1.524002 h -0.38311 l 0.0974,-0.550334 h -0.41275 l -0.0952,0.550334 h -0.38312 l 0.26882,-1.524002 h 0.381 l -0.1143,0.643468 h 0.41275 l 0.1143,-0.643468 z"
         id="text6-7"
         style="font-size:2.11667px;line-height:0.9;font-family:'Fugaz One';-inkscape-font-specification:'Fugaz One, Normal';letter-spacing:0px;word-spacing:0px;fill:#548f38;stroke-width:4.528"
         aria-label="NASH" />
      <path
         d="m 258.82281,49.839701 q 0,0.102305 0.0247,0.151694 h -0.62442 q -0.0212,-0.08467 -0.0212,-0.218722 0,-0.42686 0.28575,-0.680859 0.28928,-0.257527 0.8255,-0.257527 0.85725,0 0.85725,0.691442 0,0.246944 -0.11994,0.462138 -0.11995,0.211667 -0.29281,0.34925 -0.17286,0.134055 -0.34572,0.23636 -0.17286,0.09878 -0.29986,0.169333 -0.127,0.06703 -0.13758,0.102305 v 0.0035 h 0.94191 l -0.0988,0.550332 h -1.84502 l 0.0459,-0.261055 q 0.0388,-0.222249 0.16933,-0.39511 0.13053,-0.176388 0.29634,-0.275166 0.1658,-0.09878 0.34925,-0.194027 0.18697,-0.09878 0.33866,-0.172861 0.1517,-0.07761 0.25047,-0.197555 0.10231,-0.119944 0.10231,-0.268111 0,-0.253999 -0.28575,-0.253999 -0.19756,0 -0.30692,0.127 -0.10936,0.123472 -0.10936,0.33161 z m 2.80105,-1.005414 q 0.83255,0 0.83255,0.747887 0,0.137583 -0.0282,0.303388 l -0.0847,0.493888 q -0.0917,0.539749 -0.381,0.804331 -0.28575,0.264583 -0.79728,0.264583 -0.508,0 -0.70203,-0.261055 -0.13052,-0.179916 -0.13052,-0.486832 0,-0.148166 0.0282,-0.321027 l 0.0847,-0.493888 q 0.18345,-1.051275 1.17828,-1.051275 z m -0.64911,1.756829 q 0,0.310444 0.28575,0.310444 0.17639,0 0.28575,-0.116417 0.11289,-0.116416 0.1658,-0.419804 l 0.0811,-0.465666 q 0.0212,-0.116416 0.0212,-0.201083 0,-0.317499 -0.28222,-0.317499 -0.35983,0.0071 -0.45156,0.518582 l -0.0847,0.465666 q -0.0212,0.130527 -0.0212,0.225777 z m 3.22085,0.807859 h -1.60866 l 0.44803,-2.539994 h 0.63499 l -0.34924,1.989662 h 0.97366 z"
         id="text7"
         style="font-size:3.52777px;line-height:0.9;font-family:'Fugaz One';-inkscape-font-specification:'Fugaz One, Normal';letter-spacing:0px;word-spacing:0px;fill:#548f38;stroke-width:4.528"
         aria-label="20L" />
    </g>
    <path
       id="path2-4"
       style="fill:#b39644;fill-opacity:0.700155;stroke-width:5.2981"
       d="m 339.41801,62.17648 c 5.56766,19.765714 3.29818,41.21831 -5.06903,47.9157 -8.3672,6.69738 -0.9927,-20.045802 -6.56037,-39.811525 -5.56767,-19.765721 -21.96916,-25.069106 -13.60194,-31.766482 8.36722,-6.697383 19.66368,3.896592 25.23134,23.662307 z" />
    <path
       id="path2-4-2"
       style="fill:#b39644;fill-opacity:0.700155;stroke-width:1.75013"
       d="m 313.25802,32.010914 c -2.10369,1.510635 -2.54912,4.466603 -2.25417,7.107455 0.13528,1.211151 0.34561,3.533828 0.97368,4.519733 0.5892,0.924891 1.5606,0.542719 2.75374,0.808618 5.23816,1.167359 7.50666,0.839658 11.08576,-2.508245 3.56468,-3.334414 6.94879,-9.053715 1.71062,-10.221077 -1.17163,-0.261106 -1.79608,-0.464977 -2.84771,-0.74177 -4.02336,-1.058963 -8.84361,-1.787304 -11.42192,1.035277 0,2e-6 0,9e-6 0,9e-6 z" />
  </g>
</svg>
